<?xml version="1.0" encoding="iso-8859-1"?>
<!-- Generator: Adobe Illustrator 16.0.3, SVG Export Plug-In . SVG Version: 6.00 Build 0)  -->
<!DOCTYPE svg PUBLIC "-//W3C//DTD SVG 1.1//EN" "http://www.w3.org/Graphics/SVG/1.1/DTD/svg11.dtd">
<svg version="1.1" id="&#x428;&#x430;&#x440;_1" xmlns="http://www.w3.org/2000/svg" xmlns:xlink="http://www.w3.org/1999/xlink"
	 x="0px" y="0px" width="53px" height="52.012px" viewBox="0 0 53 52.012" style="enable-background:new 0 0 53 52.012;"
	 xml:space="preserve">
<path style="fill-rule:evenodd;clip-rule:evenodd;fill:#B1C0AB;" d="M51.514,51.994l-0.706-1.981
	c-0.594-0.616-1.296-1.117-2.11-1.532c-4.064-2.079-8.283-2.353-12.539-3.981c-0.316-0.123-0.698-0.37-0.827-0.646
	c-0.347-0.765-0.588-1.578-0.835-2.384c-0.159-0.518-0.297-1.001-0.858-1.248c-0.15-0.059-0.291-0.367-0.291-0.561
	c0.026-1.864-0.406-3.83,0.981-5.458c0.047-0.045,0.062-0.108,0.094-0.173c0.747-1.633,0.882-3.518,1.924-5.035
	c0.025-0.028,0.031-0.082,0.04-0.125c0.118-1.159,0.241-2.326,0.341-3.486c0.012-0.145-0.115-0.397-0.235-0.442
	c-0.579-0.207-0.55-0.659-0.541-1.124c0-2.265,0-2.597-0.009-4.868c0-1.318-0.385-2.502-1.387-3.391
	c-1.138-1.014-2.305-2.004-3.469-2.994c-0.564-0.477-0.611-0.842-0.085-1.361c0.232-0.242,0.529-0.401,0.802-0.601
	c-0.028-0.034-0.047-0.077-0.073-0.116l-0.328-0.155c-0.281-0.01-0.561-0.025-0.831,0.014c-1.293,0.226-2.593,0.397-3.862,0.699
	c-2.423,0.558-4.771,1.32-6.735,2.944c-1.347,1.107-2.421,2.392-2.557,4.213c-0.068,0.969-0.059,1.923-0.068,2.878
	c-0.012,1.549,0.013,1.173-0.021,2.728c-0.006,0.26-0.146,0.682-0.326,0.735c-0.626,0.193-0.647,0.597-0.563,1.128
	c0.062,0.369,0.017,0.735,0.097,1.096c0.212,0.976,0.449,1.954,0.729,2.908c0.211,0.702,0.617,1.39,0.729,2.107
	c0.224,1.45,0.767,2.713,1.744,3.811c0.16,0.184,0.285,0.487,0.274,0.724c-0.084,1.117-0.2,2.231-0.348,3.341
	c-0.035,0.217-0.259,0.53-0.444,0.578c-0.748,0.157-0.858,0.731-1.04,1.313c-0.227,0.754-0.483,1.523-0.775,2.254
	c-0.095,0.241-0.322,0.477-0.556,0.574C15.53,44.956,5.824,47.842,4.42,48.583c-0.822,0.443-1.588,0.934-2.226,1.544l-0.687,1.885
	C0.596,51.28,0,50.171,0,48.912V3.993C0,1.788,1.791,0,4,0h45c2.209,0,4,1.788,4,3.993v44.919
	C53,50.161,52.414,51.262,51.514,51.994z"/>
</svg>