<?xml version="1.0" encoding="iso-8859-1"?>
<!-- Generator: Adobe Illustrator 16.0.3, SVG Export Plug-In . SVG Version: 6.00 Build 0)  -->
<!DOCTYPE svg PUBLIC "-//W3C//DTD SVG 1.1//EN" "http://www.w3.org/Graphics/SVG/1.1/DTD/svg11.dtd">
<svg version="1.1" id="&#x428;&#x430;&#x440;_1" xmlns="http://www.w3.org/2000/svg" xmlns:xlink="http://www.w3.org/1999/xlink"
	 x="0px" y="0px" width="16px" height="16px" viewBox="0 0 16 16" style="enable-background:new 0 0 16 16;" xml:space="preserve">
<path style="fill-rule:evenodd;clip-rule:evenodd;fill:#057EBB;" d="M8,16c-4.418,0-8-3.582-8-8s3.582-8,8-8s8,3.582,8,8
	S12.418,16,8,16z M9.754,5.298c0.294-0.265,0.329-0.713,0.081-1.021C9.586,3.969,9.141,3.909,8.819,4.14L4.31,7.382
	C4.116,7.522,4,7.747,4,7.986c0,0.239,0.114,0.464,0.308,0.605l4.509,3.267C8.949,11.954,9.102,12,9.254,12c0.009,0,0.018,0,0.027,0
	C9.68,11.986,10,11.658,10,11.254c0-0.224-0.099-0.425-0.256-0.562L6.774,7.99L9.754,5.298z"/>
</svg>