<?xml version="1.0" encoding="iso-8859-1"?>
<!-- Generator: Adobe Illustrator 16.0.3, SVG Export Plug-In . SVG Version: 6.00 Build 0)  -->
<!DOCTYPE svg PUBLIC "-//W3C//DTD SVG 1.1//EN" "http://www.w3.org/Graphics/SVG/1.1/DTD/svg11.dtd">
<svg version="1.1" id="&#x428;&#x430;&#x440;_1" xmlns="http://www.w3.org/2000/svg" xmlns:xlink="http://www.w3.org/1999/xlink"
	 x="0px" y="0px" width="15px" height="17px" viewBox="0 0 15 17" style="enable-background:new 0 0 15 17;" xml:space="preserve">
<path style="fill:#2C8C36;" d="M7.945,12.162l-1.281-1.289l-0.613,1.924L7.945,12.162z M14.907,6.202
	C14.969,6.265,15,6.339,15,6.426c0,0.087-0.031,0.162-0.093,0.224l-6.201,6.24c-0.012,0.012-0.049,0.038-0.111,0.075l-3.435,1.121
	c-0.012,0-0.024,0.003-0.037,0.009c-0.012,0.006-0.031,0.009-0.056,0.009c-0.086,0-0.161-0.031-0.223-0.093
	c-0.099-0.087-0.124-0.199-0.074-0.336l1.095-3.419c0.013-0.05,0.05-0.105,0.111-0.168L11,5V1H5L4.752,4.577
	c0,0.124-0.056,0.187-0.167,0.187L1,5v11h3h4h3v-3c0.272-0.262-0.1-0.393,0.055-0.549c0.154-0.156,0.281-0.277,0.38-0.364
	l0.223-0.224c0.099-0.1,0.17-0.125,0.213-0.075c0.043,0.05,0.065,0.118,0.065,0.205v4.484c0,0.149-0.046,0.274-0.139,0.374
	C11.705,16.95,11.59,17,11.454,17H8.187H3.75H0.464c-0.136,0-0.248-0.047-0.334-0.14C0.043,16.767,0,16.651,0,16.514V4.577V3.662
	V3.605h0.019c0-0.025,0.012-0.05,0.037-0.075l3.49-3.456V0.019h0.111C3.669,0.006,3.682,0,3.694,0h0.891l0.037,0.019h6.832
	c0.136,0,0.25,0.043,0.344,0.131c0.093,0.087,0.139,0.199,0.139,0.336v3.605l0.223-0.224c0.062-0.063,0.136-0.094,0.223-0.094
	s0.161,0.031,0.223,0.094L14.907,6.202z"/>
</svg>