<svg version="1.1" xmlns="http://www.w3.org/2000/svg" xmlns:xlink="http://www.w3.org/1999/xlink" width="32" height="18" viewBox="0 0 32 18">
<g id="ic_refferal">
<path id="Shape-1" d="M25.195,15.723 C24.825,14.159 24.076,12.713 22.994,11.502 C23.948,10.664 25.189,10.157 26.546,10.157 C29.558,10.157 32.000,12.649 32.000,15.723 C32.000,15.723 25.195,15.723 25.195,15.723 zM26.546,8.070 C24.885,8.070 23.538,6.696 23.538,5.000 C23.538,3.304 24.885,1.929 26.546,1.929 C28.208,1.929 29.555,3.304 29.555,5.000 C29.555,6.696 28.208,8.070 26.546,8.070 zM16.000,8.348 C13.741,8.348 11.910,6.479 11.910,4.174 C11.910,1.869 13.741,-0.000 16.000,-0.000 C18.259,-0.000 20.090,1.869 20.090,4.174 C20.090,6.479 18.259,8.348 16.000,8.348 zM-0.000,15.723 C-0.000,12.649 2.442,10.157 5.454,10.157 C6.811,10.157 8.052,10.665 9.006,11.502 C7.923,12.713 7.174,14.159 6.805,15.723 C6.805,15.723 -0.000,15.723 -0.000,15.723 zM5.454,8.070 C3.792,8.070 2.445,6.696 2.445,5.000 C2.445,3.304 3.792,1.929 5.454,1.929 C7.115,1.929 8.462,3.304 8.462,5.000 C8.462,6.696 7.115,8.070 5.454,8.070 zM16.000,10.435 C20.094,10.435 23.413,13.822 23.413,18.000 C23.413,18.000 8.587,18.000 8.587,18.000 C8.587,13.822 11.906,10.435 16.000,10.435 z" fill="#7D7D7D" />
</g>
</svg>