<?xml version="1.0" encoding="iso-8859-1"?>
<!-- Generator: Adobe Illustrator 16.0.3, SVG Export Plug-In . SVG Version: 6.00 Build 0)  -->
<!DOCTYPE svg PUBLIC "-//W3C//DTD SVG 1.1//EN" "http://www.w3.org/Graphics/SVG/1.1/DTD/svg11.dtd">
<svg version="1.1" id="&#x428;&#x430;&#x440;_1" xmlns="http://www.w3.org/2000/svg" xmlns:xlink="http://www.w3.org/1999/xlink"
	 x="0px" y="0px" width="18px" height="18px" viewBox="0 0 18 18" style="enable-background:new 0 0 18 18;" xml:space="preserve">
<path style="fill:#2DA037;" d="M9,0C4.03,0,0,4.03,0,9s4.03,9,9,9s9-4.03,9-9S13.97,0,9,0z M9,14.745
	c-0.704,0-1.186-0.542-1.186-1.245c0-0.723,0.502-1.245,1.186-1.245c0.722,0,1.185,0.522,1.185,1.245
	C10.185,14.203,9.722,14.745,9,14.745z M9.466,9.99c-0.179,0.611-0.744,0.623-0.932,0C8.317,9.274,7.547,6.552,7.547,4.784
	c0-2.333,2.918-2.344,2.918,0C10.465,6.563,9.653,9.354,9.466,9.99z"/>
</svg>