<?xml version="1.0" encoding="utf-8"?>
<!-- Generator: Adobe Illustrator 16.0.3, SVG Export Plug-In . SVG Version: 6.00 Build 0)  -->
<!DOCTYPE svg PUBLIC "-//W3C//DTD SVG 1.1//EN" "http://www.w3.org/Graphics/SVG/1.1/DTD/svg11.dtd">
<svg version="1.1" id="Шар_1" xmlns="http://www.w3.org/2000/svg" xmlns:xlink="http://www.w3.org/1999/xlink" x="0px" y="0px"
	 width="16px" height="16px" viewBox="0 0 16 16" enable-background="new 0 0 16 16" xml:space="preserve">
<path fill-rule="evenodd" clip-rule="evenodd" fill="#FFFFFF" d="M8,16c-4.418,0-8-3.582-8-8s3.582-8,8-8s8,3.582,8,8
	S12.418,16,8,16z M8,1.5C4.41,1.5,1.5,4.41,1.5,8s2.91,6.5,6.5,6.5s6.5-2.91,6.5-6.5S11.59,1.5,8,1.5z M10.75,11.5
	c-0.207,0-0.395-0.084-0.53-0.22l0,0L8,9.061l-2.22,2.22l0,0c-0.136,0.136-0.323,0.22-0.53,0.22c-0.414,0-0.75-0.336-0.75-0.75
	c0-0.207,0.084-0.395,0.22-0.53l0,0L6.939,8L4.72,5.78l0,0C4.584,5.645,4.5,5.457,4.5,5.25c0-0.414,0.336-0.75,0.75-0.75
	c0.207,0,0.395,0.084,0.53,0.22l0,0L8,6.939l2.22-2.22l0,0c0.136-0.136,0.323-0.22,0.53-0.22c0.414,0,0.75,0.336,0.75,0.75
	c0,0.207-0.084,0.395-0.22,0.53l0,0L9.061,8l2.22,2.22l0,0c0.136,0.136,0.22,0.323,0.22,0.53C11.5,11.164,11.164,11.5,10.75,11.5z"
	/>
</svg>