<?xml version="1.0" encoding="iso-8859-1"?>
<!-- Generator: Adobe Illustrator 16.0.3, SVG Export Plug-In . SVG Version: 6.00 Build 0)  -->
<!DOCTYPE svg PUBLIC "-//W3C//DTD SVG 1.1//EN" "http://www.w3.org/Graphics/SVG/1.1/DTD/svg11.dtd">
<svg version="1.1" id="&#x428;&#x430;&#x440;_1" xmlns="http://www.w3.org/2000/svg" xmlns:xlink="http://www.w3.org/1999/xlink"
	 x="0px" y="0px" width="49.006px" height="48.95px" viewBox="0 0 49.006 48.95" style="enable-background:new 0 0 49.006 48.95;"
	 xml:space="preserve">
<path style="fill:#BF1946;" d="M7.681,6.677C-2.158,15.955-2.604,31.442,6.685,41.27c0.163,0.174,0.329,0.344,0.498,0.512
	c9.568,9.557,25.081,9.557,34.648,0c9.568-9.556,9.568-25.051,0-34.607C32.458-2.195,17.324-2.416,7.681,6.677z M12.381,17.211
	l4.85-4.845l7.276,7.268l7.276-7.268l4.851,4.845l-7.276,7.27l7.276,7.265l-4.851,4.845l-7.275-7.268l-7.276,7.268l-4.851-4.845
	l7.275-7.265L12.381,17.211z"/>
</svg>