<?xml version="1.0" encoding="iso-8859-1"?>
<!-- Generator: Adobe Illustrator 16.0.3, SVG Export Plug-In . SVG Version: 6.00 Build 0)  -->
<!DOCTYPE svg PUBLIC "-//W3C//DTD SVG 1.1//EN" "http://www.w3.org/Graphics/SVG/1.1/DTD/svg11.dtd">
<svg version="1.1" id="&#x428;&#x430;&#x440;_1" xmlns="http://www.w3.org/2000/svg" xmlns:xlink="http://www.w3.org/1999/xlink"
	 x="0px" y="0px" width="14.978px" height="19.001px" viewBox="0 0 14.978 19.001"
	 style="enable-background:new 0 0 14.978 19.001;" xml:space="preserve">
<path style="fill-rule:evenodd;clip-rule:evenodd;fill:#7D7D7D;" d="M0,19.001V3.863L4.435,0h10.543v19.001H0z M13.988,0.992h-8v4
	h-5v13h13V0.992z M7.499,14.717c2.953,0,5.347,1.067,5.347,2.177H2.151C2.151,15.785,4.546,14.717,7.499,14.717z M7.437,13.935
	c-1.508,0-2.73-1.542-2.73-3.445c0-1.902,1.222-3.444,2.73-3.444c1.508,0,2.73,1.542,2.73,3.444
	C10.167,12.393,8.945,13.935,7.437,13.935z"/>
</svg>